# xmcd
#
# Track frame offsets:
#	151
#	6259
#	24200
#	25842
#	41244
#	43376
#	57577
#	76726
#	78936
#	96605
#	99475
#	105725
#	107765
#	127302
#	145870
#	148796
#	164786
#	166765
#	184068
#	201684
#
# Disc length: 2705 seconds
#
# Revision: 1
# Processed by: cddbd v1.5.2PL0 Copyright (c) Steve Scherf et al.
# Submitted via: EasyCDDAExtractor 15.2.1.1
#
DISCID=250a8f14
DTITLE=Funky Blues Messiahs - The Reverend Pettibones Travelling Tent Revival
DYEAR=1999
DGENRE=Blues
TTITLE0=Slideman Cometh
TTITLE1=Crawdaddy-O
TTITLE2=Saintity And Sinners
TTITLE3=Swamp Gas
TTITLE4=Road Kill Hunting
TTITLE5=Dine And Dash
TTITLE6=Lost In Mississippi
TTITLE7=The Sighting
TTITLE8=Visit From The King
TTITLE9=What Seven Deadly
TTITLE10=Moshing For Jesus
TTITLE11=Infomercial
TTITLE12=Collection Plate Shuffle
TTITLE13=Carnal De Mardi Gras
TTITLE14=Poor Soul Searching
TTITLE15=Tittie Bar
TTITLE16=Revelation 69
TTITLE17=2-Time Lover
TTITLE18=Suddently Lst Summer
TTITLE19=Wrap This Rascal
EXTD=
EXTT0=
EXTT1=
EXTT2=
EXTT3=
EXTT4=
EXTT5=
EXTT6=
EXTT7=
EXTT8=
EXTT9=
EXTT10=
EXTT11=
EXTT12=
EXTT13=
EXTT14=
EXTT15=
EXTT16=
EXTT17=
EXTT18=
EXTT19=
PLAYORDER=
